<?xml version="1.0" encoding="UTF-8"?>
<svg width="800" height="400" xmlns="http://www.w3.org/2000/svg">
    <style>
        .title { font: bold 14px sans-serif; }
        .label { font: 12px sans-serif; }
        .axis { font: 10px sans-serif; }
        .chart-line { fill: none; stroke: #4bc0c0; stroke-width: 2; }
        .grid-line { stroke: #e0e0e0; stroke-width: 1; }
        .data-point { fill: #4bc0c0; }
    </style>

    <!-- Title -->
    <text x="400" y="30" text-anchor="middle" class="title">Real-time Power Consumption Monitor</text>

    <!-- Chart Area -->
    <rect x="50" y="50" width="700" height="300" fill="white" stroke="#ccc"/>

    <!-- Grid Lines -->
    <g class="grid">
        <!-- Vertical -->
        <line x1="150" y1="50" x2="150" y2="350" class="grid-line"/>
        <line x1="250" y1="50" x2="250" y2="350" class="grid-line"/>
        <line x1="350" y1="50" x2="350" y2="350" class="grid-line"/>
        <line x1="450" y1="50" x2="450" y2="350" class="grid-line"/>
        <line x1="550" y1="50" x2="550" y2="350" class="grid-line"/>
        <line x1="650" y1="50" x2="650" y2="350" class="grid-line"/>

        <!-- Horizontal -->
        <line x1="50" y1="100" x2="750" y2="100" class="grid-line"/>
        <line x1="50" y1="150" x2="750" y2="150" class="grid-line"/>
        <line x1="50" y1="200" x2="750" y2="200" class="grid-line"/>
        <line x1="50" y1="250" x2="750" y2="250" class="grid-line"/>
        <line x1="50" y1="300" x2="750" y2="300" class="grid-line"/>
    </g>

    <!-- Power Consumption Line -->
    <path d="M50,200 Q150,150 250,250 T450,180 T650,220 T750,150" class="chart-line"/>

    <!-- Data Points -->
    <circle cx="50" cy="200" r="4" class="data-point"/>
    <circle cx="150" cy="150" r="4" class="data-point"/>
    <circle cx="250" cy="250" r="4" class="data-point"/>
    <circle cx="350" cy="200" r="4" class="data-point"/>
    <circle cx="450" cy="180" r="4" class="data-point"/>
    <circle cx="550" cy="220" r="4" class="data-point"/>
    <circle cx="650" cy="220" r="4" class="data-point"/>
    <circle cx="750" cy="150" r="4" class="data-point"/>

    <!-- Axes Labels -->
    <g class="axis">
        <!-- Y-axis -->
        <text x="45" y="100" text-anchor="end">50W</text>
        <text x="45" y="150" text-anchor="end">40W</text>
        <text x="45" y="200" text-anchor="end">30W</text>
        <text x="45" y="250" text-anchor="end">20W</text>
        <text x="45" y="300" text-anchor="end">10W</text>
        <text x="45" y="350" text-anchor="end">0W</text>

        <!-- X-axis -->
        <text x="50" y="370">14:30</text>
        <text x="150" y="370">14:31</text>
        <text x="250" y="370">14:32</text>
        <text x="350" y="370">14:33</text>
        <text x="450" y="370">14:34</text>
        <text x="550" y="370">14:35</text>
        <text x="650" y="370">14:36</text>
        <text x="750" y="370">14:37</text>
    </g>

    <!-- Current Stats -->
    <g transform="translate(600, 80)">
        <rect x="0" y="0" width="140" height="80" fill="white" stroke="#ccc"/>
        <text x="10" y="20" class="label">Current: 35.2W</text>
        <text x="10" y="40" class="label">Avg: 32.8W</text>
        <text x="10" y="60" class="label">State: Normal Usage</text>
    </g>
</svg>
